PathFileType	4	(X/Y/Z)	./resultDataOpenSim/trcMotMarkerGrf/sub06/qtm-03-07.trc
DataRate	CameraRate	NumFrames	NumMarkers	Units	OrigDataRate	OrigDataStartFrame	OrigNumFrames
250.000000	250.000000	9	24	m	250.000000	306	488
Frame#	Time	L.Toe.Tip			R.Toe.Tip			L.Ankle.Lat			R.Ankle.Lat			L.Ankle.Med			R.Ankle.Med			L.Heel			R.Heel			L.Knee.Lat			R.Knee.Lat			L.Knee.Med			R.Knee.Med			L.Thigh.Upper			R.Thigh.Upper			L.ASIS			R.ASIS			V.Sacral			L.Acromium			R.Acromium			C7			L.Elbow			R.Elbow			L.Wrist.Lat			R.Wrist.Lat
		X1	Y1	Z1	X2	Y2	Z2	X3	Y3	Z3	X4	Y4	Z4	X5	Y5	Z5	X6	Y6	Z6	X7	Y7	Z7	X8	Y8	Z8	X9	Y9	Z9	X10	Y10	Z10	X11	Y11	Z11	X12	Y12	Z12	X13	Y13	Z13	X14	Y14	Z14	X15	Y15	Z15	X16	Y16	Z16	X17	Y17	Z17	X18	Y18	Z18	X19	Y19	Z19	X20	Y20	Z20	X21	Y21	Z21	X22	Y22	Z22	X23	Y23	Z23	X24	Y24	Z24

306	1.22	0.30294239	0.093063993	-0.03781898	0.97554846	0.036092437	0.10502705	0.32862243	0.2218783	-0.071037794	0.84015938	0.059815079	0.13170901	0.35296497	0.22328302	0.010750793	0.85840592	0.080565586	0.044312576	0.29466487	0.28470144	-0.019270083	0.78325849	0.038010311	0.074136364	0.68028611	0.35254	-0.11399887	0.91630472	0.43730178	0.16587433	0.68665167	0.33711351	0.00681441	0.8745226	0.42473814	0.045818103	0.67106521	0.74416015	-0.09628484	0.74656322	0.76929585	0.24137699	0.7607033	0.79247366	-0.070315346	0.81687297	0.81231894	0.1667517	0.60675724	0.88708704	0.08931477	0.7336638	1.2917474	-0.10854199	0.75830497	1.2655352	0.25354455	0.66872645	1.3221289	0.078699344	0.70823598	0.96574717	-0.17167946	0.65959537	0.96847459	0.31853845	0.92410645	0.83307946	-0.16100672	0.77796034	0.75882292	0.36140075
307	1.224	0.31620241	0.097485953	-0.038328226	0.97544311	0.03610019	0.1052007	0.34172649	0.22627021	-0.071524438	0.84011393	0.059761404	0.13180507	0.36597911	0.2277327	0.010171165	0.85834743	0.080720433	0.044545636	0.30757087	0.28927808	-0.020165666	0.7831909	0.038059251	0.074216862	0.69348696	0.35482364	-0.11445025	0.91801551	0.43704959	0.16670635	0.699538	0.33953087	0.0066916063	0.87608579	0.4250866	0.046669544	0.67712838	0.74669102	-0.09620997	0.7515919	0.77087602	0.24215346	0.76669648	0.79499034	-0.069994878	0.82229047	0.81404823	0.16760818	0.61236463	0.88952319	0.089686188	0.73909051	1.2941088	-0.10863787	0.76446994	1.2680859	0.25347404	0.67474083	1.3245105	0.07876779	0.71297925	0.96828823	-0.17125317	0.6674814	0.97033188	0.31897769	0.92636848	0.83267679	-0.16216734	0.78833526	0.76175513	0.36031154
308	1.228	0.32964206	0.10171382	-0.038836933	0.97533917	0.036109713	0.10537376	0.35491088	0.23048904	-0.072009642	0.84006518	0.059712281	0.1319177	0.37908744	0.23201404	0.009582441	0.85827198	0.080882046	0.044790664	0.32055573	0.29356396	-0.020891392	0.78311995	0.038116809	0.074319463	0.70666899	0.35729538	-0.11485091	0.91954287	0.43680074	0.16752005	0.71220977	0.34199809	0.0066519737	0.87753343	0.42553771	0.047504865	0.68318273	0.74934655	-0.096157241	0.75671105	0.77258866	0.2430353	0.77232372	0.79745431	-0.069722784	0.82766269	0.81582083	0.16845289	0.61793692	0.89199907	0.089973803	0.74449703	1.2964994	-0.1086986	0.77059804	1.2706955	0.25340004	0.68072294	1.3269355	0.078830009	0.71767272	0.97090412	-0.17092437	0.6753218	0.97225235	0.31941248	0.92850937	0.8323651	-0.1633482	0.79869164	0.76481894	0.35920361
309	1.232	0.34324595	0.10574006	-0.039384668	0.97523282	0.036118901	0.105541	0.36814595	0.23453376	-0.072492299	0.84000025	0.059655115	0.13206431	0.39227489	0.23612128	0.0090004963	0.85818082	0.081056436	0.045049512	0.33358808	0.29753073	-0.021386006	0.7830431	0.038184467	0.074449128	0.71980777	0.35995166	-0.11519469	0.9209279	0.43656629	0.16829164	0.7248884	0.34452122	0.0065336215	0.87887425	0.42606606	0.048330304	0.68919427	0.75209534	-0.096058109	0.76168115	0.77431535	0.24377247	0.77763482	0.79987237	-0.069477101	0.83301352	0.8176483	0.16928209	0.6235679	0.89448233	0.090142967	0.74990273	1.2989207	-0.10873713	0.77669213	1.273353	0.25332109	0.68667004	1.3293883	0.078886046	0.72227249	0.97357156	-0.17065333	0.68311966	0.97423085	0.31984502	0.93053036	0.83214171	-0.16454947	0.80908058	0.76802732	0.35810849
310	1.236	0.35700567	0.1095528	-0.039995765	0.97512696	0.03612747	0.10570177	0.38141444	0.23839939	-0.072973335	0.83993156	0.059582271	0.13223972	0.40552815	0.24004699	0.0084342028	0.85807989	0.081245973	0.045321065	0.34663654	0.30121433	-0.021744693	0.78296366	0.038261155	0.074599484	0.73291487	0.36277928	-0.11549028	0.92225452	0.4363831	0.16904871	0.73793275	0.34715219	0.0062245789	0.88019488	0.42664081	0.049105715	0.69517926	0.75487331	-0.095852892	0.76635627	0.77596295	0.24419631	0.78271744	0.80229426	-0.069173692	0.8383561	0.8195346	0.17009132	0.62928136	0.89695081	0.090234244	0.75531913	1.3013669	-0.10876364	0.78275469	1.2760462	0.25323728	0.69259925	1.3318366	0.078925415	0.72676493	0.97627862	-0.17041596	0.69087162	0.97625798	0.32027337	0.93243942	0.83199819	-0.165769	0.81951573	0.77137515	0.35703803
311	1.24	0.37090968	0.11313956	-0.040643266	0.97502644	0.036137344	0.1058567	0.39471786	0.24208269	-0.073453029	0.83986689	0.05949591	0.1324304	0.41883172	0.24378502	0.0078866983	0.85797579	0.081448922	0.045600951	0.35966626	0.30468411	-0.022122508	0.78289056	0.038342183	0.074749533	0.74601173	0.36577457	-0.11575501	0.92356366	0.43626761	0.16983106	0.75147667	0.34995098	0.0057893063	0.88160846	0.427229	0.049777546	0.70119785	0.7576556	-0.095572276	0.77085173	0.77756486	0.24434748	0.78765689	0.80477537	-0.068737473	0.8436966	0.82148134	0.1708764	0.63506369	0.89939451	0.090295856	0.76075342	1.3038263	-0.10877935	0.78878959	1.2787676	0.25314984	0.69855981	1.3342307	0.078915996	0.73115606	0.97902042	-0.17020034	0.69857471	0.97832669	0.32069816	0.9342479	0.83192238	-0.16700024	0.82996851	0.77484605	0.35598217
312	1.244	0.38493395	0.1164949	-0.041261508	0.9749301	0.036151303	0.10600548	0.40806404	0.24558092	-0.073927058	0.83979857	0.059405185	0.13262515	0.43216832	0.24733034	0.0073590451	0.85786989	0.081662466	0.045883147	0.372627	0.30798272	-0.022574511	0.78283115	0.038421736	0.074874385	0.75909297	0.36894389	-0.11599791	0.92479883	0.43620561	0.17059773	0.76521806	0.3529695	0.0054213335	0.88315314	0.42780345	0.050322995	0.707302	0.76046113	-0.095263461	0.77546195	0.77926241	0.24441125	0.79269703	0.80735561	-0.068155742	0.84904105	0.82348843	0.1716353	0.6408761	0.90181196	0.090302073	0.7662134	1.3062904	-0.10878274	0.79480457	1.2815148	0.25306193	0.70460403	1.3365234	0.078820014	0.73545746	0.98179389	-0.16999877	0.70622942	0.98043777	0.32112396	0.93596544	0.83190602	-0.16823613	0.84040152	0.77842574	0.35492153
313	1.248	0.39905997	0.11962242	-0.041820212	0.97483082	0.036171333	0.10614608	0.42144594	0.24888633	-0.074386768	0.83971616	0.059320609	0.13281493	0.44552414	0.25067548	0.0068519588	0.85775777	0.081884547	0.046162535	0.38547496	0.31110293	-0.023044207	0.78278102	0.038499128	0.074969693	0.77213726	0.37229304	-0.11622614	0.92588534	0.43618201	0.17126682	0.77875265	0.35622579	0.0052532191	0.88470618	0.42835061	0.050785116	0.7135036	0.76331003	-0.094922135	0.78043323	0.78119783	0.24459711	0.79815806	0.81002555	-0.067504016	0.85439625	0.82555261	0.1723676	0.64666305	0.9041996	0.090110611	0.77170883	1.3087567	-0.10877466	0.8008053	1.284285	0.25297488	0.71071711	1.338725	0.078649441	0.73967946	0.98459542	-0.16980334	0.71383926	0.98259379	0.32155482	0.937598	0.83194909	-0.16947165	0.85079497	0.78210529	0.35384227
314	1.252	0.41329391	0.12252565	-0.042364738	0.97472273	0.036197601	0.10627472	0.43484264	0.25198787	-0.074824903	0.83961404	0.059252262	0.13299368	0.45889167	0.25381094	0.0063672475	0.85763505	0.082113903	0.046435564	0.39821903	0.31401656	-0.023501459	0.78272361	0.038579461	0.075060561	0.78513081	0.37581779	-0.116454	0.92682286	0.43619864	0.17182732	0.7919789	0.35969765	0.0052618315	0.88604765	0.42886665	0.051249867	0.719787	0.76618422	-0.094555667	0.78571539	0.78336825	0.24499949	0.80414699	0.81272626	-0.066872649	0.85976873	0.82766674	0.17307312	0.6523792	0.90655033	0.089540821	0.7772488	1.3112207	-0.10875696	0.80679089	1.2870708	0.25288685	0.71679927	1.3409199	0.078485328	0.74383015	0.98742055	-0.16960504	0.72140848	0.98478935	0.32199046	0.9391506	0.83205283	-0.17070388	0.8611438	0.78587237	0.35274041
